<!DOCTYPE svg PUBLIC "-//W3C//DTD SVG 1.1//EN" "http://www.w3.org/Graphics/SVG/1.1/DTD/svg11.dtd">
<!-- Uploaded to: SVG Repo, www.svgrepo.com, Transformed by: SVG Repo Mixer Tools -->
<svg width="64px" height="64px" viewBox="-4.8 -4.8 33.60 33.60" fill="none" xmlns="http://www.w3.org/2000/svg" transform="rotate(180)">
<g id="SVGRepo_bgCarrier" stroke-width="0" transform="translate(0,0), scale(1)">
<path transform="translate(-4.8, -4.8), scale(1.05)" d="M16,31.888635005801916C19.608487556660066,32.24115407644081,23.12134980442432,30.064725981898256,25.52136376774735,27.347119476609247C27.699051642377796,24.881259350366243,27.4310939692565,21.353070420496355,28.141181261249294,18.14081783403028C28.90053318676376,14.705704694733893,31.503847669981393,11.110698364330602,29.789636476152882,8.038549668466056C28.07399904377987,4.963844918306531,23.798007626564484,4.684642013599416,20.321525286220133,4.126706858508015C17.496997301016414,3.6734028272473402,14.835110561864411,4.472321092063955,12.067038827962342,5.194277988234745C8.901805250154833,6.0198209759766685,5.092354659584457,5.944631988209996,3.1789480187341628,8.597762187321976C1.2106889484406518,11.326950780893059,1.6630169364547112,15.127275410670613,2.5657062678286007,18.368828451744434C3.3974471015983645,21.355605779652095,5.7359966711253465,23.428471065813202,7.921361562597275,25.627746381044364C10.397415761993802,28.119561318292426,12.503811960602103,31.547086659278555,16,31.888635005801916" fill="#ffffff" strokewidth="0"/>
</g>
<g id="SVGRepo_tracerCarrier" stroke-linecap="round" stroke-linejoin="round" stroke="#CCCCCC" stroke-width="0.048"/>
<g id="SVGRepo_iconCarrier"> <path d="M7 8L3 11.6923L7 16M17 8L21 11.6923L17 16M14 4L10 20" stroke="#000000" stroke-width="2.4" stroke-linecap="round" stroke-linejoin="round"/> </g>
</svg>